<svg width="229" height="229" fill="none" xmlns="http://www.w3.org/2000/svg"><circle cx="9.385" cy="9.385" r="9.385" fill="#91C09B"/><circle cx="167.057" cy="61.943" r="9.385" fill="#91C09B"/><circle cx="114.5" cy="61.943" r="9.385" fill="#91C09B"/><circle cx="61.943" cy="61.943" r="9.385" fill="#91C09B"/><circle cx="9.385" cy="61.943" r="9.385" fill="#91C09B"/><circle cx="9.385" cy="114.5" r="9.385" fill="#91C09B"/><circle cx="61.943" cy="114.5" r="9.385" fill="#91C09B"/><circle cx="114.5" cy="114.5" r="9.385" fill="#91C09B"/><circle cx="167.057" cy="114.5" r="9.385" fill="#91C09B"/><circle cx="219.615" cy="114.5" r="9.385" fill="#91C09B"/><circle cx="219.615" cy="167.057" r="9.385" fill="#91C09B"/><circle cx="219.615" cy="219.615" r="9.385" fill="#91C09B"/><circle cx="167.057" cy="219.615" r="9.385" fill="#91C09B"/><circle cx="114.5" cy="219.615" r="9.385" fill="#91C09B"/><circle cx="61.943" cy="219.615" r="9.385" fill="#91C09B"/><circle cx="9.385" cy="219.615" r="9.385" fill="#91C09B"/><circle cx="167.057" cy="167.057" r="9.385" fill="#91C09B"/><circle cx="114.5" cy="167.057" r="9.385" fill="#91C09B"/><circle cx="61.943" cy="167.057" r="9.385" fill="#91C09B"/><circle cx="9.385" cy="167.057" r="9.385" fill="#91C09B"/><circle cx="114.5" cy="9.385" r="9.385" fill="#91C09B"/><circle cx="219.615" cy="61.943" r="9.385" fill="#91C09B"/><circle cx="167.057" cy="9.385" r="9.385" fill="#91C09B"/><circle cx="219.615" cy="9.385" r="9.385" fill="#91C09B"/><circle cx="61.943" cy="9.385" r="9.385" fill="#91C09B"/></svg>