<svg width="229" height="229" viewBox="0 0 229 229" fill="none" xmlns="http://www.w3.org/2000/svg">
<circle cx="9.38525" cy="9.38525" r="9.38525" fill="#91C09B"/>
<circle cx="167.057" cy="61.9426" r="9.38525" fill="#91C09B"/>
<circle cx="114.5" cy="61.9426" r="9.38525" fill="#91C09B"/>
<circle cx="61.9426" cy="61.9426" r="9.38525" fill="#91C09B"/>
<circle cx="9.38525" cy="61.9426" r="9.38525" fill="#91C09B"/>
<circle cx="9.38525" cy="114.5" r="9.38525" fill="#91C09B"/>
<circle cx="61.9426" cy="114.5" r="9.38525" fill="#91C09B"/>
<circle cx="114.5" cy="114.5" r="9.38525" fill="#91C09B"/>
<circle cx="167.057" cy="114.5" r="9.38525" fill="#91C09B"/>
<circle cx="219.615" cy="114.5" r="9.38525" fill="#91C09B"/>
<circle cx="219.615" cy="167.057" r="9.38525" fill="#91C09B"/>
<circle cx="219.615" cy="219.615" r="9.38525" fill="#91C09B"/>
<circle cx="167.057" cy="219.615" r="9.38525" fill="#91C09B"/>
<circle cx="114.5" cy="219.615" r="9.38525" fill="#91C09B"/>
<circle cx="61.9426" cy="219.615" r="9.38525" fill="#91C09B"/>
<circle cx="9.38525" cy="219.615" r="9.38525" fill="#91C09B"/>
<circle cx="167.057" cy="167.057" r="9.38525" fill="#91C09B"/>
<circle cx="114.5" cy="167.057" r="9.38525" fill="#91C09B"/>
<circle cx="61.9426" cy="167.057" r="9.38525" fill="#91C09B"/>
<circle cx="9.38525" cy="167.057" r="9.38525" fill="#91C09B"/>
<circle cx="114.5" cy="9.38525" r="9.38525" fill="#91C09B"/>
<circle cx="219.615" cy="61.9426" r="9.38525" fill="#91C09B"/>
<circle cx="167.057" cy="9.38525" r="9.38525" fill="#91C09B"/>
<circle cx="219.615" cy="9.38525" r="9.38525" fill="#91C09B"/>
<circle cx="61.9426" cy="9.38525" r="9.38525" fill="#91C09B"/>
</svg>
